<svg xmlns="http://www.w3.org/2000/svg" xmlns:xlink="http://www.w3.org/1999/xlink" width="1000" zoomAndPan="magnify" viewBox="0 0 750 749.999995" height="1000" preserveAspectRatio="xMidYMid meet" version="1.2"><defs><clipPath id="3015955d3c"><path d="M 16 52.734375 L 734 52.734375 L 734 697.265625 L 16 697.265625 Z M 16 52.734375 "/></clipPath><clipPath id="abca4eba29"><path d="M 719.828125 426.859375 L 592.671875 645.40625 C 573.992188 677.511719 539.648438 697.265625 502.5 697.265625 L 247.5 697.265625 C 210.351562 697.265625 176.007812 677.511719 157.328125 645.40625 L 30.171875 426.859375 C 11.523438 394.800781 11.523438 355.199219 30.171875 323.140625 L 157.328125 104.59375 C 176.007812 72.488281 210.351562 52.734375 247.5 52.734375 L 502.5 52.734375 C 539.648438 52.734375 573.992188 72.488281 592.671875 104.59375 L 719.828125 323.140625 C 738.476562 355.199219 738.476562 394.800781 719.828125 426.859375 Z M 719.828125 426.859375 "/></clipPath><clipPath id="36a0572b54"><path d="M 16 52.734375 L 734 52.734375 L 734 696.984375 L 16 696.984375 Z M 16 52.734375 "/></clipPath><clipPath id="b9dd4b7b98"><path d="M 719.511719 426.699219 L 592.414062 645.144531 C 573.742188 677.242188 539.410156 696.984375 502.28125 696.984375 L 247.390625 696.984375 C 210.261719 696.984375 175.929688 677.242188 157.257812 645.144531 L 30.160156 426.699219 C 11.515625 394.652344 11.515625 355.066406 30.160156 323.019531 L 157.257812 104.574219 C 175.929688 72.476562 210.261719 52.734375 247.390625 52.734375 L 502.28125 52.734375 C 539.410156 52.734375 573.742188 72.476562 592.414062 104.574219 L 719.511719 323.019531 C 738.15625 355.066406 738.15625 394.652344 719.511719 426.699219 Z M 719.511719 426.699219 "/></clipPath><clipPath id="2bfb3b54d5"><path d="M 121.332031 357.34375 L 199.675781 357.34375 L 199.675781 408.707031 L 121.332031 408.707031 Z M 121.332031 357.34375 "/></clipPath><clipPath id="57f596e001"><path d="M 145.046875 357.566406 C 118.617188 358.820312 114.285156 383.359375 132.964844 399.695312 C 151.644531 416.027344 199.601562 405.160156 199.601562 405.160156 C 199.601562 405.160156 171.484375 356.304688 145.046875 357.566406 "/></clipPath><clipPath id="293b45c821"><path d="M 155.160156 230 L 199.304688 230 L 199.304688 303.390625 L 155.160156 303.390625 Z M 155.160156 230 "/></clipPath><clipPath id="6668cc987c"><path d="M 190.601562 237.589844 C 173.105469 221.050781 154.292969 233.707031 155.375 256.242188 C 156.453125 278.78125 193.808594 303.363281 193.808594 303.363281 C 193.808594 303.363281 208.082031 254.109375 190.59375 237.589844 "/></clipPath><clipPath id="095ae545fa"><path d="M 584.757812 373 L 625.59375 373 L 625.59375 402.683594 L 584.757812 402.683594 Z M 584.757812 373 "/></clipPath><clipPath id="3e011b2990"><path d="M 622.355469 392.335938 C 629.839844 380.339844 620.367188 370.976562 607.511719 374.210938 C 594.648438 377.457031 584.847656 401.832031 584.847656 401.832031 C 584.847656 401.832031 614.867188 404.339844 622.355469 392.328125 "/></clipPath><clipPath id="12d124537f"><path d="M 431.800781 108.535156 L 463.636719 108.535156 L 463.636719 153.523438 L 431.800781 153.523438 Z M 431.800781 108.535156 "/></clipPath><clipPath id="6804c26ad4"><path d="M 463.21875 123.324219 C 463.753906 107.773438 449.582031 104.054688 439.101562 114.230469 C 428.636719 124.382812 432.6875 153.015625 432.6875 153.015625 C 432.6875 153.015625 462.679688 138.878906 463.21875 123.324219 "/></clipPath><clipPath id="e57b370615"><path d="M 532.15625 291.253906 L 574.375 291.253906 L 574.375 326.550781 L 532.15625 326.550781 Z M 532.15625 291.253906 "/></clipPath><clipPath id="0514ac4af6"><path d="M 553.855469 292.929688 C 540.222656 298.148438 532.675781 326.058594 532.675781 326.058594 C 532.675781 326.058594 565.816406 324.886719 572.429688 310.800781 C 579.058594 296.726562 567.484375 287.722656 553.847656 292.929688 "/></clipPath><clipPath id="9a341032df"><path d="M 519.007812 430.371094 L 585 430.371094 L 585 473.972656 L 519.007812 473.972656 Z M 519.007812 430.371094 "/></clipPath><clipPath id="bbca962706"><path d="M 558.59375 431.445312 C 537.945312 434.839844 519.300781 471.882812 519.300781 471.882812 C 519.300781 471.882812 566.175781 479.777344 579.542969 461.886719 C 592.898438 444.011719 579.238281 428.046875 558.585938 431.445312 "/></clipPath><clipPath id="8dd5621bd3"><path d="M 231.085938 243.496094 L 296.835938 243.496094 L 296.835938 349 L 231.085938 349 Z M 231.085938 243.496094 "/></clipPath><clipPath id="cb20d1f6f0"><path d="M 251.308594 348.964844 C 230.515625 348.964844 231.257812 330.53125 231.257812 330.53125 L 231.257812 243.914062 C 231.257812 243.914062 250.851562 249.027344 250.851562 257.890625 C 250.851562 266.742188 250.800781 309.707031 250.851562 319.078125 C 250.898438 328.449219 260.46875 329.953125 260.46875 329.953125 C 260.46875 329.953125 262.117188 329.992188 276.691406 329.953125 C 287.09375 329.910156 296.703125 348.96875 296.703125 348.96875 Z M 251.308594 348.964844 "/></clipPath><clipPath id="41d7099188"><path d="M 295 270 L 378.507812 270 L 378.507812 372.921875 L 295 372.921875 Z M 295 270 "/></clipPath><clipPath id="2222e4dcde"><path d="M 360.316406 312.0625 C 360.316406 305.550781 358.164062 300.050781 353.863281 295.570312 C 349.554688 291.101562 344.226562 288.851562 337.882812 288.851562 L 337.03125 288.851562 C 330.410156 288.851562 324.917969 291.164062 320.570312 295.792969 C 316.210938 300.40625 314.039062 306.117188 314.039062 312.914062 C 314.039062 319.230469 316.289062 324.582031 320.789062 328.960938 C 325.277344 333.359375 330.796875 335.546875 337.324219 335.546875 C 344.136719 335.546875 349.679688 333.332031 353.933594 328.898438 C 358.191406 324.472656 360.324219 318.855469 360.324219 312.054688 M 378.207031 290.179688 L 378.207031 372.734375 C 378.207031 372.734375 360.894531 368.785156 360.894531 357.128906 L 360.894531 340.671875 C 357.957031 344.738281 354.027344 347.972656 349.113281 350.390625 C 344.195312 352.808594 339.125 354.011719 333.921875 354.011719 C 327.964844 354.011719 322.523438 352.855469 317.597656 350.542969 C 312.671875 348.230469 308.46875 344.945312 304.964844 340.695312 C 298.335938 332.851562 295.023438 323.308594 295.023438 312.066406 C 295.023438 306.402344 295.808594 301.347656 297.375 296.914062 C 298.9375 292.472656 301.554688 288.160156 305.25 284.011719 C 312.914062 274.945312 322.667969 270.414062 334.496094 270.414062 C 345.65625 270.414062 354.457031 274.902344 360.898438 283.898438 L 360.898438 272.816406 C 360.898438 272.816406 378.214844 274.792969 378.214844 290.1875 "/></clipPath><clipPath id="8d37d4a420"><path d="M 305.140625 234 L 362.585938 234 L 362.585938 262.875 L 305.140625 262.875 Z M 305.140625 234 "/></clipPath><clipPath id="f9abe74372"><path d="M 305.671875 259.1875 L 328.636719 234.472656 L 343.679688 234.472656 L 362.132812 254.054688 C 362.132812 254.054688 351.347656 263.140625 343.679688 254.054688 L 336.015625 244.980469 C 336.015625 244.980469 329.640625 251.421875 322.417969 259.1875 C 315.1875 266.957031 305.664062 259.1875 305.664062 259.1875 "/></clipPath><clipPath id="370477053c"><path d="M 394.425781 263.570312 L 512.777344 263.570312 L 512.777344 372.921875 L 394.425781 372.921875 Z M 394.425781 263.570312 "/></clipPath><clipPath id="afc996615b"><path d="M 394.492188 363.6875 L 394.492188 263.785156 C 394.492188 263.785156 411.820312 266.867188 411.820312 273.972656 L 411.820312 277.421875 C 413.523438 274.15625 416.328125 271.757812 420.222656 270.214844 C 424.113281 268.667969 428.257812 267.90625 432.621094 267.90625 C 441.644531 267.90625 448.679688 271.078125 453.710938 277.445312 L 455.703125 279.972656 C 456.375 278.753906 457.027344 277.921875 457.683594 277.445312 C 460.226562 274.363281 463.558594 272.007812 467.660156 270.359375 C 471.757812 268.730469 476.082031 267.90625 480.609375 267.90625 C 485.417969 267.90625 489.835938 268.660156 493.847656 270.171875 C 497.855469 271.683594 501.445312 274.183594 504.601562 277.6875 C 507.761719 281.175781 509.957031 285.382812 511.175781 290.300781 C 512.117188 294.074219 512.597656 298.902344 512.597656 304.746094 L 512.597656 372.222656 C 512.597656 372.222656 493.570312 373.253906 493.570312 354.753906 L 493.570312 305.101562 C 493.570312 302.253906 493.390625 299.746094 493.007812 297.570312 C 492.636719 295.390625 491.886719 293.5 490.765625 291.890625 C 488.410156 288.109375 484.566406 286.21875 479.226562 286.21875 C 473.414062 286.21875 469.101562 288.484375 466.289062 293.019531 C 465.074219 294.917969 464.203125 297.355469 463.691406 300.34375 C 463.179688 303.328125 462.914062 306.277344 462.914062 309.199219 L 462.914062 348.957031 C 462.914062 348.957031 444.179688 346.734375 444.179688 331.972656 L 444.179688 306.941406 C 444.179688 303.25 444.035156 300.464844 443.757812 298.570312 C 443.480469 296.671875 442.648438 294.710938 441.277344 292.675781 C 439.90625 290.636719 438.085938 289.050781 435.8125 287.917969 C 433.539062 286.78125 431.214844 286.21875 428.851562 286.21875 C 422.222656 286.21875 417.785156 289.003906 415.511719 294.585938 C 414.183594 297.902344 413.523438 303.527344 413.523438 311.480469 C 413.523438 311.480469 413.34375 337.769531 413.523438 350.453125 C 413.703125 363.132812 394.5 363.6875 394.5 363.6875 "/></clipPath><clipPath id="c1813f17f2"><path d="M 408 357.003906 L 438.71875 357.003906 L 438.71875 388 L 408 388 Z M 408 357.003906 "/></clipPath><clipPath id="485790bb7c"><path d="M 420.804688 359.3125 C 410.71875 364.996094 408.085938 387.804688 408.085938 387.804688 C 408.085938 387.804688 433.964844 382.984375 437.503906 371.15625 C 441.042969 359.3125 430.886719 353.605469 420.804688 359.3125 "/></clipPath><clipPath id="d4c0bc4292"><path d="M 210.320312 363.234375 L 294.757812 363.234375 L 294.757812 469 L 210.320312 469 Z M 210.320312 363.234375 "/></clipPath><clipPath id="54ad22a7f3"><path d="M 244.019531 468.535156 L 244.019531 382.507812 L 210.554688 382.507812 C 210.5625 382.507812 211.753906 363.496094 234.925781 363.496094 L 294.222656 363.496094 C 294.222656 363.496094 294.25 382.507812 280.894531 382.507812 L 263.324219 382.507812 C 263.324219 382.507812 264.410156 434.496094 264.722656 448.839844 C 265.035156 463.183594 244.027344 468.535156 244.027344 468.535156 "/></clipPath><clipPath id="e81de839e6"><path d="M 296.144531 348.699219 L 366.738281 348.699219 L 366.738281 487 L 296.144531 487 Z M 296.144531 348.699219 "/></clipPath><clipPath id="922e617fe6"><path d="M 296.695312 486.738281 L 296.695312 348.964844 C 296.695312 348.964844 315.4375 353.859375 315.4375 368.871094 L 315.4375 395.859375 C 317.429688 393.070312 320.292969 390.964844 324.003906 389.570312 C 327.714844 388.179688 331.617188 387.488281 335.710938 387.488281 C 340.078125 387.488281 344.339844 388.402344 348.472656 390.242188 C 352.621094 392.085938 356.070312 394.664062 358.828125 397.964844 C 362.0625 401.546875 364.25 405.945312 365.394531 411.148438 C 366.148438 414.734375 366.542969 419.699219 366.542969 426.03125 L 366.542969 463.480469 C 366.542969 463.480469 347.253906 460.683594 347.886719 444.113281 C 348.21875 435.199219 347.519531 430.019531 347.519531 430.019531 C 347.519531 422.546875 346.714844 417.074219 345.109375 413.585938 C 342.738281 408.480469 338.246094 405.9375 331.617188 405.9375 C 326.035156 405.9375 321.675781 408.203125 318.558594 412.734375 C 317.335938 414.617188 316.503906 416.804688 316.074219 419.242188 C 315.652344 421.703125 315.4375 424.535156 315.4375 427.75 L 315.4375 430.289062 C 315.4375 430.289062 315.167969 456.4375 315.4375 471.097656 C 315.777344 489.265625 296.695312 486.746094 296.695312 486.746094 "/></clipPath><clipPath id="40ed73fd81"><path d="M 379.890625 389.535156 L 450.484375 389.535156 L 450.484375 487 L 379.890625 487 Z M 379.890625 389.535156 "/></clipPath><clipPath id="0724b5ff90"><path d="M 431.054688 389.898438 L 444.835938 389.898438 C 444.835938 389.898438 450.074219 390.796875 450.074219 395.480469 L 450.074219 486.738281 C 450.074219 486.738281 432.757812 484.191406 432.757812 472.746094 L 432.757812 460.015625 C 430.671875 463.714844 427.882812 466.480469 424.382812 468.320312 C 420.886719 470.164062 416.863281 471.097656 412.320312 471.097656 C 402.386719 471.097656 394.144531 467.394531 387.621094 460.015625 C 384.398438 456.609375 382.226562 452.691406 381.089844 448.234375 C 380.335938 445.113281 379.945312 440.429688 379.945312 434.183594 L 379.945312 389.898438 C 379.945312 389.898438 398.972656 387.285156 398.972656 403.5 L 398.972656 428.496094 C 398.972656 431.902344 399.117188 434.917969 399.402344 437.507812 C 399.6875 440.113281 400.300781 442.410156 401.25 444.390625 C 403.992188 449.890625 408.539062 452.628906 414.882812 452.628906 C 421.226562 452.628906 425.664062 450.023438 428.222656 444.820312 C 430.113281 440.9375 431.0625 435.503906 431.0625 428.496094 Z M 431.054688 389.898438 "/></clipPath><clipPath id="c25d9479f1"><path d="M 453.253906 377.078125 L 536.308594 377.078125 L 536.308594 510.65625 L 453.253906 510.65625 Z M 453.253906 377.078125 "/></clipPath><clipPath id="f83a0caa39"><path d="M 457.996094 510.167969 L 482.515625 454.699219 L 453.566406 383.441406 C 453.566406 383.441406 473.441406 378.667969 477.984375 391.433594 C 482.53125 404.199219 493.03125 433.691406 493.03125 433.691406 C 493.03125 433.691406 504.449219 408.105469 511.21875 389.730469 C 517.976562 371.382812 536.054688 379.605469 536.054688 379.605469 C 536.054688 379.605469 501.367188 458.632812 487.003906 491.648438 C 477.140625 514.339844 458.003906 510.167969 458.003906 510.167969 "/></clipPath><clipPath id="897201bd2b"><path d="M 220.703125 128.605469 L 332.824219 128.605469 L 332.824219 238.652344 L 220.703125 238.652344 Z M 220.703125 128.605469 "/></clipPath><clipPath id="af358e9d2c"><path d="M 327.5 161.613281 C 327.5 161.613281 313.199219 170.136719 304.222656 161.613281 C 295.246094 153.09375 297.191406 153.855469 292.234375 151.394531 C 287.273438 148.9375 282.082031 147.703125 276.683594 147.703125 C 267.3125 147.703125 259.175781 150.730469 252.261719 156.785156 C 248.667969 159.90625 245.78125 163.863281 243.605469 168.640625 C 241.429688 173.421875 240.335938 178.277344 240.335938 183.191406 C 240.335938 187.535156 241.214844 191.886719 242.960938 196.25 C 244.707031 200.613281 247.144531 204.386719 250.273438 207.601562 C 257.75 215.367188 266.828125 219.242188 277.53125 219.242188 C 283.679688 219.242188 289.621094 217.519531 295.34375 214.054688 C 301.070312 210.605469 305.351562 206.089844 308.191406 200.507812 C 308.191406 200.507812 303.703125 201.097656 283.117188 200.507812 C 262.535156 199.921875 264.191406 182.0625 264.191406 182.0625 L 332.605469 182.0625 C 332.605469 182.0625 331.960938 194.40625 330.679688 199.035156 C 328.214844 207.933594 323.367188 215.800781 316.144531 222.652344 C 305.15625 233.0625 292.101562 238.269531 276.960938 238.269531 C 261.628906 238.269531 248.425781 233.019531 237.351562 222.507812 C 226.277344 212.011719 220.742188 199.089844 220.742188 183.753906 C 220.742188 168.328125 226.234375 155.292969 237.210938 144.65625 C 248.191406 134.003906 261.351562 128.683594 276.679688 128.683594 C 287.558594 128.683594 297.753906 131.667969 307.269531 137.625 C 316.78125 143.597656 323.519531 151.589844 327.496094 161.613281 "/></clipPath><clipPath id="4ff7cb62a5"><path d="M 340.4375 150.0625 L 424.1875 150.0625 L 424.1875 255.261719 L 340.4375 255.261719 Z M 340.4375 150.0625 "/></clipPath><clipPath id="46c80f419b"><path d="M 406.132812 196.324219 C 406.132812 189.820312 403.980469 184.316406 399.679688 179.835938 C 395.378906 175.351562 390.042969 173.117188 383.707031 173.117188 L 382.863281 173.117188 C 376.226562 173.117188 370.742188 175.421875 366.398438 180.050781 C 362.042969 184.667969 359.875 190.375 359.875 197.171875 C 359.875 203.492188 362.113281 208.847656 366.605469 213.230469 C 371.101562 217.609375 376.609375 219.804688 383.144531 219.804688 C 389.96875 219.804688 395.496094 217.589844 399.753906 213.164062 C 404.015625 208.722656 406.140625 203.105469 406.140625 196.320312 M 424.03125 150.65625 L 424.03125 255.148438 C 424.03125 255.148438 406.714844 252.21875 406.714844 241.421875 L 406.714844 224.921875 C 403.78125 228.996094 399.84375 232.238281 394.933594 234.65625 C 390.011719 237.066406 384.945312 238.269531 379.746094 238.269531 C 373.789062 238.269531 368.34375 237.113281 363.414062 234.808594 C 358.496094 232.492188 354.285156 229.203125 350.789062 224.945312 C 344.160156 217.117188 340.855469 207.566406 340.855469 196.324219 C 340.855469 190.652344 341.632812 185.597656 343.191406 181.148438 C 344.753906 176.71875 347.378906 172.417969 351.070312 168.265625 C 358.746094 159.195312 368.484375 154.65625 380.308594 154.65625 C 391.480469 154.65625 400.28125 159.152344 406.714844 168.148438 L 406.714844 162.074219 C 406.714844 162.074219 414.75 148.480469 424.03125 150.667969 "/></clipPath><clipPath id="b67d1b6c04"><path d="M 430.414062 144 L 536.308594 144 L 536.308594 249.726562 L 430.414062 249.726562 Z M 430.414062 144 "/></clipPath><clipPath id="030454a577"><path d="M 483.171875 167.519531 C 479.363281 167.519531 475.699219 168.289062 472.1875 169.832031 C 468.675781 171.390625 465.546875 173.578125 462.8125 176.417969 C 457.332031 181.878906 454.597656 188.769531 454.597656 197.082031 C 454.597656 205.140625 457.332031 212.027344 462.8125 217.734375 C 468.289062 223.421875 475.082031 226.28125 483.171875 226.28125 C 491.5 226.28125 498.410156 223.488281 503.890625 217.90625 C 509.367188 212.324219 512.105469 205.382812 512.105469 197.082031 C 512.105469 188.878906 509.332031 181.910156 503.800781 176.148438 C 498.265625 170.402344 491.394531 167.511719 483.171875 167.511719 M 484.246094 144.304688 C 498.652344 144.304688 510.886719 149.449219 520.949219 159.726562 C 531.011719 170.007812 536.039062 182.460938 536.039062 197.082031 C 536.039062 211.578125 530.859375 223.933594 520.5 234.15625 C 510.136719 244.378906 497.699219 249.492188 483.171875 249.492188 C 468.886719 249.492188 456.5625 244.324219 446.203125 233.976562 C 435.847656 223.636719 430.660156 211.339844 430.660156 197.082031 C 430.660156 182.339844 435.847656 169.859375 446.203125 159.636719 C 456.5625 149.40625 469.238281 144.304688 484.246094 144.304688 "/></clipPath><clipPath id="72f5c17123"><path d="M 373 243 L 393 243 L 393 262.875 L 373 262.875 Z M 373 243 "/></clipPath><clipPath id="66af263aef"><path d="M 392.914062 254.898438 C 392.914062 259.171875 389.433594 262.628906 385.175781 262.628906 L 381.070312 262.628906 C 376.796875 262.628906 373.324219 259.171875 373.324219 254.898438 L 373.324219 250.785156 C 373.324219 246.511719 376.796875 243.0625 381.070312 243.0625 L 385.175781 243.0625 C 389.441406 243.0625 392.914062 246.511719 392.914062 250.785156 Z M 392.914062 254.898438 "/></clipPath><clipPath id="5565ebe9c3"><path d="M 168.792969 440.75 L 523.851562 440.75 L 523.851562 641.464844 L 168.792969 641.464844 Z M 168.792969 440.75 "/></clipPath><clipPath id="0520fec91c"><path d="M 494.796875 499.675781 C 489.40625 510.640625 481.96875 517.511719 477.128906 520.574219 C 466.882812 527.042969 449.984375 525.851562 440.632812 522.136719 C 443.277344 514.816406 448.953125 500.667969 452.261719 492.023438 L 351.183594 473.78125 C 337.792969 487 319.40625 495.175781 299.105469 495.175781 C 270.097656 495.175781 245.003906 478.503906 232.835938 454.242188 C 231.796875 452.917969 231.25 452.128906 231.25 452.128906 L 168.808594 440.839844 C 168.808594 441.183594 168.796875 441.511719 168.796875 441.855469 C 168.796875 508.785156 204.769531 567.296875 258.425781 599.15625 L 260.511719 621.730469 L 369.390625 641.460938 L 378.472656 622.691406 C 445.433594 612.828125 500.59375 566.679688 523.296875 504.851562 Z M 494.796875 499.675781 "/></clipPath><clipPath id="676ad3761c"><path d="M 0 39.628906 L 749 39.628906 L 749 710.128906 L 0 710.128906 Z M 0 39.628906 "/></clipPath><clipPath id="1dcaba7ab4"><path d="M 734.804688 426.722656 L 600.078125 658.285156 C 581.402344 690.382812 547.070312 710.128906 509.9375 710.128906 L 239.785156 710.128906 C 202.648438 710.128906 168.316406 690.382812 149.644531 658.285156 L 14.914062 426.722656 C -3.730469 394.675781 -3.730469 355.082031 14.914062 323.039062 L 149.644531 91.472656 C 168.316406 59.375 202.648438 39.628906 239.785156 39.628906 L 509.9375 39.628906 C 547.070312 39.628906 581.402344 59.375 600.078125 91.472656 L 734.804688 323.039062 C 753.453125 355.082031 753.453125 394.675781 734.804688 426.722656 Z M 734.804688 426.722656 "/></clipPath></defs><g id="f58c6c9d16"><g clip-rule="nonzero" clip-path="url(#3015955d3c)"><g clip-rule="nonzero" clip-path="url(#abca4eba29)"><path style=" stroke:none;fill-rule:nonzero;fill:#ffffff;fill-opacity:1;" d="M 0 52.734375 L 750.273438 52.734375 L 750.273438 697.265625 L 0 697.265625 Z M 0 52.734375 "/></g></g><g clip-rule="nonzero" clip-path="url(#36a0572b54)"><g clip-rule="nonzero" clip-path="url(#b9dd4b7b98)"><path style="fill:none;stroke-width:60;stroke-linecap:butt;stroke-linejoin:miter;stroke:#9aaf33;stroke-opacity:1;stroke-miterlimit:4;" d="M 959.767706 498.837414 L 790.230194 790.224965 C 765.323494 833.04052 719.527471 859.374927 670.000654 859.374927 L 329.998143 859.374927 C 280.471326 859.374927 234.675303 833.04052 209.768603 790.224965 L 40.231091 498.837414 C 15.360865 456.089597 15.360865 403.285308 40.231091 360.53749 L 209.768603 69.14994 C 234.675303 26.334384 280.471326 -0.0000224499 329.998143 -0.0000224499 L 670.000654 -0.0000224499 C 719.527471 -0.0000224499 765.323494 26.334384 790.230194 69.14994 L 959.767706 360.53749 C 984.637932 403.285308 984.637932 456.089597 959.767706 498.837414 Z M 959.767706 498.837414 " transform="matrix(0.749673,0,0,0.749673,0.00000265,52.734392)"/></g></g><g clip-rule="nonzero" clip-path="url(#2bfb3b54d5)"><g clip-rule="nonzero" clip-path="url(#57f596e001)"><path style=" stroke:none;fill-rule:nonzero;fill:#e5a424;fill-opacity:1;" d="M 121.53125 357.542969 L 199.675781 357.542969 L 199.675781 408.707031 L 121.53125 408.707031 Z M 121.53125 357.542969 "/></g></g><g clip-rule="nonzero" clip-path="url(#293b45c821)"><g clip-rule="nonzero" clip-path="url(#6668cc987c)"><path style=" stroke:none;fill-rule:nonzero;fill:#9aaf33;fill-opacity:1;" d="M 155.332031 230.046875 L 199.304688 230.046875 L 199.304688 303.390625 L 155.332031 303.390625 Z M 155.332031 230.046875 "/></g></g><g clip-rule="nonzero" clip-path="url(#095ae545fa)"><g clip-rule="nonzero" clip-path="url(#3e011b2990)"><path style=" stroke:none;fill-rule:nonzero;fill:#e5a424;fill-opacity:1;" d="M 165.332031 105.074219 L 628.359375 105.074219 L 628.359375 644.925781 L 165.332031 644.925781 Z M 165.332031 105.074219 "/></g></g><g clip-rule="nonzero" clip-path="url(#12d124537f)"><g clip-rule="nonzero" clip-path="url(#6804c26ad4)"><path style=" stroke:none;fill-rule:nonzero;fill:#9aaf33;fill-opacity:1;" d="M 165.332031 105.074219 L 628.359375 105.074219 L 628.359375 644.925781 L 165.332031 644.925781 Z M 165.332031 105.074219 "/></g></g><g clip-rule="nonzero" clip-path="url(#e57b370615)"><g clip-rule="nonzero" clip-path="url(#0514ac4af6)"><path style=" stroke:none;fill-rule:nonzero;fill:#f5a31c;fill-opacity:1;" d="M 165.332031 105.074219 L 628.359375 105.074219 L 628.359375 644.925781 L 165.332031 644.925781 Z M 165.332031 105.074219 "/></g></g><g clip-rule="nonzero" clip-path="url(#9a341032df)"><g clip-rule="nonzero" clip-path="url(#bbca962706)"><path style=" stroke:none;fill-rule:nonzero;fill:#9aaf33;fill-opacity:1;" d="M 165.332031 105.074219 L 628.359375 105.074219 L 628.359375 644.925781 L 165.332031 644.925781 Z M 165.332031 105.074219 "/></g></g><g clip-rule="nonzero" clip-path="url(#8dd5621bd3)"><g clip-rule="nonzero" clip-path="url(#cb20d1f6f0)"><path style=" stroke:none;fill-rule:nonzero;fill:#f5a31c;fill-opacity:1;" d="M 165.332031 105.074219 L 628.359375 105.074219 L 628.359375 644.925781 L 165.332031 644.925781 Z M 165.332031 105.074219 "/></g></g><g clip-rule="nonzero" clip-path="url(#41d7099188)"><g clip-rule="nonzero" clip-path="url(#2222e4dcde)"><path style=" stroke:none;fill-rule:nonzero;fill:#f5a31c;fill-opacity:1;" d="M 165.332031 105.074219 L 628.359375 105.074219 L 628.359375 644.925781 L 165.332031 644.925781 Z M 165.332031 105.074219 "/></g></g><g clip-rule="nonzero" clip-path="url(#8d37d4a420)"><g clip-rule="nonzero" clip-path="url(#f9abe74372)"><path style=" stroke:none;fill-rule:nonzero;fill:#f5a31c;fill-opacity:1;" d="M 165.332031 105.074219 L 628.359375 105.074219 L 628.359375 644.925781 L 165.332031 644.925781 Z M 165.332031 105.074219 "/></g></g><g clip-rule="nonzero" clip-path="url(#370477053c)"><g clip-rule="nonzero" clip-path="url(#afc996615b)"><path style=" stroke:none;fill-rule:nonzero;fill:#f5a31c;fill-opacity:1;" d="M 165.332031 105.074219 L 628.359375 105.074219 L 628.359375 644.925781 L 165.332031 644.925781 Z M 165.332031 105.074219 "/></g></g><g clip-rule="nonzero" clip-path="url(#c1813f17f2)"><g clip-rule="nonzero" clip-path="url(#485790bb7c)"><path style=" stroke:none;fill-rule:nonzero;fill:#e5a424;fill-opacity:1;" d="M 165.332031 105.074219 L 628.359375 105.074219 L 628.359375 644.925781 L 165.332031 644.925781 Z M 165.332031 105.074219 "/></g></g><g clip-rule="nonzero" clip-path="url(#d4c0bc4292)"><g clip-rule="nonzero" clip-path="url(#54ad22a7f3)"><path style=" stroke:none;fill-rule:nonzero;fill:#f5a31c;fill-opacity:1;" d="M 165.332031 105.074219 L 628.359375 105.074219 L 628.359375 644.925781 L 165.332031 644.925781 Z M 165.332031 105.074219 "/></g></g><g clip-rule="nonzero" clip-path="url(#e81de839e6)"><g clip-rule="nonzero" clip-path="url(#922e617fe6)"><path style=" stroke:none;fill-rule:nonzero;fill:#f5a31c;fill-opacity:1;" d="M 165.332031 105.074219 L 628.359375 105.074219 L 628.359375 644.925781 L 165.332031 644.925781 Z M 165.332031 105.074219 "/></g></g><g clip-rule="nonzero" clip-path="url(#40ed73fd81)"><g clip-rule="nonzero" clip-path="url(#0724b5ff90)"><path style=" stroke:none;fill-rule:nonzero;fill:#f5a31c;fill-opacity:1;" d="M 165.332031 105.074219 L 628.359375 105.074219 L 628.359375 644.925781 L 165.332031 644.925781 Z M 165.332031 105.074219 "/></g></g><g clip-rule="nonzero" clip-path="url(#c25d9479f1)"><g clip-rule="nonzero" clip-path="url(#f83a0caa39)"><path style=" stroke:none;fill-rule:nonzero;fill:#f5a31c;fill-opacity:1;" d="M 165.332031 105.074219 L 628.359375 105.074219 L 628.359375 644.925781 L 165.332031 644.925781 Z M 165.332031 105.074219 "/></g></g><g clip-rule="nonzero" clip-path="url(#897201bd2b)"><g clip-rule="nonzero" clip-path="url(#af358e9d2c)"><path style=" stroke:none;fill-rule:nonzero;fill:#f5a31c;fill-opacity:1;" d="M 165.332031 105.074219 L 628.359375 105.074219 L 628.359375 644.925781 L 165.332031 644.925781 Z M 165.332031 105.074219 "/></g></g><g clip-rule="nonzero" clip-path="url(#4ff7cb62a5)"><g clip-rule="nonzero" clip-path="url(#46c80f419b)"><path style=" stroke:none;fill-rule:nonzero;fill:#f5a31c;fill-opacity:1;" d="M 165.332031 105.074219 L 628.359375 105.074219 L 628.359375 644.925781 L 165.332031 644.925781 Z M 165.332031 105.074219 "/></g></g><g clip-rule="nonzero" clip-path="url(#b67d1b6c04)"><g clip-rule="nonzero" clip-path="url(#030454a577)"><path style=" stroke:none;fill-rule:nonzero;fill:#f5a31c;fill-opacity:1;" d="M 165.332031 105.074219 L 628.359375 105.074219 L 628.359375 644.925781 L 165.332031 644.925781 Z M 165.332031 105.074219 "/></g></g><g clip-rule="nonzero" clip-path="url(#72f5c17123)"><g clip-rule="nonzero" clip-path="url(#66af263aef)"><path style=" stroke:none;fill-rule:nonzero;fill:#9aaf33;fill-opacity:1;" d="M 165.332031 105.074219 L 628.359375 105.074219 L 628.359375 644.925781 L 165.332031 644.925781 Z M 165.332031 105.074219 "/></g></g><g clip-rule="nonzero" clip-path="url(#5565ebe9c3)"><g clip-rule="nonzero" clip-path="url(#0520fec91c)"><path style=" stroke:none;fill-rule:nonzero;fill:#9aaf33;fill-opacity:1;" d="M 165.332031 105.074219 L 628.359375 105.074219 L 628.359375 644.925781 L 165.332031 644.925781 Z M 165.332031 105.074219 "/></g></g><g clip-rule="nonzero" clip-path="url(#676ad3761c)"><g clip-rule="nonzero" clip-path="url(#1dcaba7ab4)"><path style="fill:none;stroke-width:40;stroke-linecap:butt;stroke-linejoin:miter;stroke:#ffffff;stroke-opacity:1;stroke-miterlimit:4;" d="M 1000.421021 516.304819 L 820.72279 825.162781 C 795.813041 867.974621 750.020993 894.311952 700.493264 894.311952 L 340.164185 894.311952 C 290.631245 894.311952 244.839197 867.974621 219.934658 825.162781 L 40.231217 516.304819 C 15.363149 473.560711 15.363149 420.750584 40.231217 378.011686 L 219.934658 69.148514 C 244.839197 26.336674 290.631245 -0.000657375 340.164185 -0.000657375 L 700.493264 -0.000657375 C 750.020993 -0.000657375 795.813041 26.336674 820.72279 69.148514 L 1000.421021 378.011686 C 1025.294299 420.750584 1025.294299 473.560711 1000.421021 516.304819 Z M 1000.421021 516.304819 " transform="matrix(0.749738,0,0,0.749738,-15.248803,39.629399)"/></g></g></g></svg>